<svg width="24" height="24" viewBox="0 0 70 40" xmlns="http://www.w3.org/2000/svg">
    <path d="M37.26,1.62c.93-.96,2.18-1.5,3.49-1.5,5.89,0,11.43,0,16.9,0,10.99,0,16.49,13.82,8.72,21.9l-16.92,17.61c-.78.81-2.11.24-2.11-.91v-15.51l1.96-2.03c1.55-1.62.45-4.38-1.74-4.38h-24.88L37.26,1.62Z" fill="#9900fe"/>
    <path d="M32.74,38.38c-.93.96-2.18,1.5-3.49,1.5H12.36c-10.99,0-16.49-13.82-8.72-21.9L20.56.38c.78-.81,2.11-.24,2.11.91v15.51s-1.96,2.03-1.96,2.03c-1.55,1.62-.45,4.38,1.74,4.38h24.88s-14.59,15.18-14.59,15.18Z" fill="#9900fe"/>
</svg>